<svg width="116" height="151" viewBox="0 0 116 151" fill="none" xmlns="http://www.w3.org/2000/svg">
<path d="M97.6286 74.2734C95.5572 82.9954 92.2249 91.1779 88.082 98.8208C86.8212 101.069 85.5603 103.227 84.2094 105.295C84.1193 105.385 84.1193 105.475 84.0293 105.565C81.9578 108.712 79.7963 111.679 77.4547 114.466C77.1845 114.826 76.8243 115.186 76.5541 115.545C75.3833 116.894 74.2125 118.243 73.0417 119.502C72.5013 120.041 71.9609 120.581 71.4206 121.21C70.7901 121.84 70.0696 122.559 69.4392 123.188C68.3584 124.178 67.2777 125.257 66.1069 126.156C65.5665 126.605 65.0261 127.145 64.3957 127.594C63.315 128.494 62.1442 129.393 61.0634 130.292C60.6131 130.652 60.1628 131.011 59.7125 131.281C59.1721 131.641 58.7218 132 58.1814 132.36C57.3709 132.899 56.5603 133.439 55.7497 133.978C55.3895 134.248 54.9392 134.518 54.5789 134.788C53.0479 135.777 51.5168 136.766 49.8957 137.665C49.5355 137.845 49.1752 138.025 48.905 138.205C47.1938 139.104 45.4827 140.093 43.7715 140.902H72.5914C73.7622 140.003 74.933 139.014 76.0137 138.025C76.5541 137.575 77.0945 137.036 77.6348 136.586C78.1752 136.047 78.8056 135.597 79.346 135.057C81.5075 132.989 83.5789 130.921 85.6504 128.763C87.0013 127.325 88.2622 125.796 89.523 124.267C89.8833 123.908 90.1535 123.458 90.5137 123.098C91.7746 121.57 92.9454 119.951 94.1162 118.423C94.1162 118.333 94.2063 118.333 94.2063 118.243C95.0168 117.074 95.8274 115.905 96.6379 114.736C103.303 104.755 108.526 93.6056 111.768 81.7366C107.265 78.8592 102.492 76.3415 97.6286 74.2734Z" fill="#182F58"/>
<path d="M45.1215 66.986L53.8575 50.8009C55.2085 50.7109 56.6495 50.7109 58.0004 50.7109C43.1402 50.7109 29.0004 53.4984 15.9414 58.6236C16.3917 64.0187 17.2023 69.2339 18.4631 74.3592C26.7489 70.6726 35.7551 68.1549 45.1215 66.986Z" fill="#182F58"/>
<path d="M58 0L0 150.881L58 42.9804V0Z" fill="#DEAB26"/>
<path d="M58 42.9775V22.6562L0 150.878L58 42.9775Z" fill="black" fill-opacity="0.3"/>
<path d="M116 150.881L58 0V22.6591V42.9804L116 150.881Z" fill="#DEAB26"/>
<path d="M58 0V22.6591L116 150.881L58 0Z" fill="black" fill-opacity="0.3"/>
<path d="M100.149 58.6237C87.09 53.4984 72.8602 50.7109 58 50.7109C56.649 50.7109 55.2081 50.8009 53.8571 50.8009L45.1211 66.986C47.1925 66.7162 49.354 66.5364 51.4254 66.3565C51.5155 66.3565 51.5155 66.3565 51.6056 66.3565C53.677 66.2666 55.8385 66.1767 58 66.1767C72.0497 66.1767 85.4689 69.0541 97.5372 74.2693C102.491 76.3373 107.174 78.855 111.677 81.6425L100.149 58.6237Z" fill="#182F58"/>
<path d="M24.9476 71.6631L15.9414 58.4453C16.3917 63.8403 17.2023 69.0555 18.4631 74.1808C20.5346 73.2817 22.6961 72.4724 24.9476 71.6631Z" fill="black" fill-opacity="0.3"/>
<path d="M97.6263 74.2734C96.9959 76.7911 96.2754 79.2189 95.4648 81.6467H111.676C107.263 78.8592 102.49 76.3415 97.6263 74.2734Z" fill="black" fill-opacity="0.3"/>
<path d="M18.464 74.2746C17.2031 69.1493 16.3925 63.9341 15.9422 58.5391L4.32422 81.7377C10.8988 105.476 24.9484 126.067 43.5913 141.083L51.511 137.091L58.0005 132.63C35.6928 115.189 23.5975 95.7648 18.464 74.2746Z" fill="#182F58"/>
<path d="M49.8041 137.75C51.4252 136.851 52.9563 135.862 54.4874 134.873C54.8476 134.603 55.2979 134.333 55.6582 134.064C56.4687 133.524 57.2793 132.985 57.9998 132.355C56.1085 131.006 54.2172 129.568 52.4159 128.039L43.5898 140.897C45.301 140.088 47.0122 139.099 48.7234 138.2C49.0836 138.11 49.4439 137.93 49.8041 137.75Z" fill="black" fill-opacity="0.3"/>
</svg>
