<svg width="201" height="431" viewBox="0 0 201 431" fill="none" xmlns="http://www.w3.org/2000/svg">
<g clip-path="url(#clip0_1225_5770)">
<path d="M174.34 334.496C171.464 331.941 165.408 326.921 156.69 321.258V255.588C159.566 258.143 165.622 263.163 174.34 268.826V300.214L191.883 279.491V279.044V261.948V259.25C177.466 250.89 168.177 242.725 165.533 240.296V240.332L165.497 240.296C162.853 242.725 153.582 250.89 139.147 259.25V265.503V311.057V328.154V330.851C153.564 339.23 162.853 347.376 165.497 349.806V349.77L165.533 349.806C167.284 348.18 171.946 344.071 179.074 339.033C177.949 337.676 174.322 334.496 174.322 334.496H174.34Z" fill="#BFAA4D"/>
<path d="M166.158 320.276C166.158 320.276 174.304 313.023 174.304 293.407L191.865 279.026C191.865 279.026 193.259 314.166 171.125 323.33L166.158 320.276Z" fill="#BFAA4D"/>
<path d="M199.869 304.555C199.869 304.555 191.722 297.302 191.722 277.704L174.161 263.323C174.161 263.323 172.768 298.445 194.902 307.609L199.869 304.555Z" fill="#BFAA4D"/>
<path d="M131.037 243.333C131.037 243.333 139.183 250.586 139.183 270.183L156.744 284.564C156.744 284.564 158.137 249.443 136.003 240.26L131.037 243.315V243.333Z" fill="#BFAA4D"/>
<path d="M33.7103 254.069C33.7103 254.069 25.5641 261.323 25.5641 280.92L8.00324 295.301C8.00324 295.301 6.60981 260.161 28.7618 251.015L33.7282 254.069H33.7103Z" fill="#BFAA4D"/>
<path d="M0 269.79C0 269.79 8.14623 277.043 8.14623 296.658L25.7071 311.039C25.7071 311.039 27.1005 275.9 4.96634 266.735L0 269.79Z" fill="#BFAA4D"/>
<path d="M68.8319 331.012C68.8319 331.012 60.6857 323.759 60.6857 304.162L43.1248 289.781C43.1248 289.781 41.7314 324.92 63.8656 334.085L68.8319 331.03V331.012Z" fill="#BFAA4D"/>
<path d="M60.7215 243.654L43.1428 253.051C43.1428 253.051 43.1606 253.069 43.1785 253.087V318.757C40.3023 316.202 34.2462 311.182 25.5283 305.519V274.131L7.98535 294.854V295.301V312.397V315.095C22.402 323.455 31.6916 331.619 34.3356 334.049V334.013L34.3713 334.049C37.0152 331.619 46.2869 323.455 60.7215 315.095V308.842V263.287V246.191V243.654Z" fill="#BFAA4D"/>
<path d="M195.134 206.764C195.134 206.764 184.415 232.989 127.892 205.21C103.703 193.33 83.713 190.239 68.0994 191.097C67.7243 191.133 67.3849 191.186 67.0097 191.222C51.0567 193.205 41.4455 197.278 36.5506 200.011C36.5506 200.011 35.9075 200.351 35.0322 200.905C34.1925 201.423 33.5673 201.851 33.1564 202.173C32.0309 202.977 30.7804 203.995 29.6728 205.138C29.6371 205.156 29.6192 205.174 29.6013 205.192C20.6512 214.035 9.89674 232.489 43.2141 254.141L49.6811 257.803L60.7392 243.637C60.7392 243.637 18.2395 221.627 37.1759 207.443C64.2407 189.489 123.783 218.055 123.783 218.055C123.783 218.055 177.823 243.958 200.172 208.711L195.152 206.746L195.134 206.764Z" fill="#BFAA4D"/>
<path d="M99.0766 263.573C99.0766 263.573 90.9303 270.826 90.9303 290.424L73.3695 304.805C73.3695 304.805 71.976 269.665 94.1102 260.519L99.0766 263.573Z" fill="#BFAA4D"/>
<path d="M65.3841 279.294C65.3841 279.294 73.5303 286.547 73.5303 306.145L91.0912 320.526C91.0912 320.526 92.4846 285.404 70.3326 276.222L65.3662 279.277L65.3841 279.294Z" fill="#BFAA4D"/>
<path d="M134.216 340.498C134.216 340.498 126.07 333.245 126.07 313.63L108.491 299.249C108.491 299.249 107.098 334.389 129.25 343.535L134.216 340.48V340.498Z" fill="#BFAA4D"/>
<path d="M100.381 239.742C100.381 239.742 108.527 246.995 108.527 266.593L126.088 280.974C126.088 280.974 127.481 245.834 105.329 236.688L100.363 239.742H100.381Z" fill="#BFAA4D"/>
<path d="M126.088 279.866L108.545 266.36V328.261C105.669 325.706 99.6124 320.686 90.8945 315.023V283.635L73.3516 304.358V304.805V321.901V324.599C87.7861 332.959 97.0578 341.123 99.7018 343.553V343.517L99.7375 343.553C102.381 341.123 111.653 332.959 126.088 324.599V318.346V279.848V279.866Z" fill="#BFAA4D"/>
<path d="M25.814 93.0384C28.708 95.5931 34.7463 100.613 43.4642 106.276V171.946C40.588 169.392 34.5319 164.372 25.814 158.708V127.32L8.271 148.043V148.49V165.586V168.284C22.6877 176.645 31.9772 184.809 34.6212 187.238V187.202L34.6569 187.238C37.3009 184.809 46.5726 176.645 61.0071 168.284V162.031V116.477V99.3804V96.6828C46.5905 88.3222 37.3009 80.1581 34.6569 77.7285V77.7642L34.6212 77.7285C32.8705 79.3542 28.2078 83.463 21.0799 88.5008C22.2053 89.8585 25.8318 93.0384 25.8318 93.0384H25.814Z" fill="#BFAA4D"/>
<path d="M33.996 107.258C33.996 107.258 25.8498 114.511 25.8498 134.127L8.28891 148.508C8.28891 148.508 6.89548 113.368 29.0296 104.204L33.996 107.258Z" fill="#BFAA4D"/>
<path d="M0.285645 122.998C0.285645 122.998 8.43188 130.251 8.43188 149.848L25.9927 164.229C25.9927 164.229 27.3862 129.107 5.25199 119.925L0.285645 122.98V122.998Z" fill="#BFAA4D"/>
<path d="M69.1176 184.201C69.1176 184.201 60.9713 176.948 60.9713 157.351L43.4105 142.97C43.4105 142.97 42.0171 178.109 64.1512 187.274L69.1176 184.219V184.201Z" fill="#BFAA4D"/>
<path d="M166.444 173.482C166.444 173.482 174.59 166.229 174.59 146.614L192.151 132.233C192.151 132.233 193.544 167.372 171.41 176.537L166.444 173.482Z" fill="#BFAA4D"/>
<path d="M200.154 157.744C200.154 157.744 192.008 150.491 192.008 130.893L174.447 116.512C174.447 116.512 173.054 151.652 195.188 160.816L200.154 157.761V157.744Z" fill="#BFAA4D"/>
<path d="M131.322 96.5397C131.322 96.5397 139.468 103.793 139.468 123.408L157.029 137.789C157.029 137.789 158.423 102.649 136.289 93.4849L131.322 96.5397Z" fill="#BFAA4D"/>
<path d="M139.433 183.879L157.011 174.483C157.011 174.483 156.976 174.465 156.976 174.447V108.777C159.852 111.332 165.908 116.351 174.626 122.015V153.403L192.169 132.68V132.233V115.137V112.439C177.752 104.079 168.462 95.9144 165.819 93.4849V93.5206L165.783 93.4849C163.139 95.9144 153.867 104.079 139.433 112.439V118.692V164.246V181.343V183.897V183.879Z" fill="#BFAA4D"/>
<path d="M5.01974 220.77C5.01974 220.77 15.7385 194.562 72.2619 222.324C96.4505 234.204 116.441 237.294 132.055 236.437C132.43 236.401 132.769 236.348 133.144 236.312C149.097 234.329 158.708 230.256 163.603 227.523C163.603 227.523 164.246 227.183 165.122 226.629C165.961 226.111 166.569 225.683 166.998 225.361C168.123 224.539 169.374 223.539 170.481 222.395C170.517 222.36 170.535 222.36 170.553 222.324C179.503 213.499 190.257 195.027 156.94 173.375L150.473 169.713L139.415 183.879C139.415 183.879 181.914 205.871 162.978 220.055C135.913 238.027 76.3707 209.444 76.3707 209.444C76.3707 209.444 22.3305 183.558 -0.0180664 218.787L5.00187 220.752L5.01974 220.77Z" fill="#BFAA4D"/>
<path d="M101.077 163.978C101.077 163.978 109.223 156.725 109.223 137.128L126.784 122.747C126.784 122.747 128.178 157.887 106.043 167.051L101.077 163.996V163.978Z" fill="#BFAA4D"/>
<path d="M134.788 148.24C134.788 148.24 126.642 140.987 126.642 121.389L109.081 107.008C109.081 107.008 107.687 142.148 129.839 151.312L134.806 148.258L134.788 148.24Z" fill="#BFAA4D"/>
<path d="M65.9378 87.0358C65.9378 87.0358 74.084 94.2888 74.084 113.886L91.6449 128.267C91.6449 128.267 93.0383 93.1455 70.8863 83.981L65.9199 87.0358H65.9378Z" fill="#BFAA4D"/>
<path d="M99.7733 187.792C99.7733 187.792 91.6271 180.539 91.6271 160.941L74.0662 146.561C74.0662 146.561 72.6728 181.7 94.8248 190.847L99.7912 187.792H99.7733Z" fill="#BFAA4D"/>
<path d="M74.0659 147.668L91.6089 161.174V99.273C94.4851 101.828 100.541 106.848 109.259 112.511V143.899L126.802 123.176V122.729V105.633V102.935C112.385 94.5746 103.096 86.4105 100.452 83.981V84.0167L100.416 83.981C97.7722 86.4105 88.5005 94.5746 74.0659 102.935V109.188V147.686V147.668Z" fill="#BFAA4D"/>
<path d="M127.821 59.5425C127.499 59.5425 127.053 59.5068 126.606 59.3639C125.945 59.1495 125.105 58.7744 123.998 56.1125C122.104 51.6107 117.191 39.3735 116.638 38.1051C116.316 37.4441 116.227 37.0153 115.905 37.0153C115.691 37.0153 115.548 37.194 115.173 38.1587L107.955 56.7199C107.455 57.9705 106.955 58.8994 105.99 59.2746C105.794 59.221 105.597 59.1674 105.419 59.0781C103.954 58.4885 103.596 58.0955 101.024 55.791C99.7734 54.6476 93.3779 48.2521 92.574 47.3768C93.235 46.6443 98.4693 41.6244 99.2374 40.9277C100.595 39.6414 101.185 38.9804 102.453 38.4088C103.043 38.1587 103.704 37.9979 104.168 37.9979C104.418 37.9979 104.49 37.8907 104.49 37.7478C104.49 37.6049 104.347 37.5334 104.043 37.5334C103.275 37.5334 101.256 37.6049 101.077 37.6049C100.345 37.6049 99.3982 37.5334 98.773 37.5334C98.5586 37.5334 98.4335 37.6049 98.4335 37.7478C98.4335 37.855 98.5407 37.9979 98.7194 38.0336C98.9695 38.0693 99.0945 38.248 99.0945 38.6231C99.0945 39.1055 98.2906 39.8737 97.4153 40.749C96.2541 41.9281 90.7875 47.341 90.3052 47.8948H90.1623V46.1084C90.1623 41.4993 90.1622 40.6597 90.2337 39.7307C90.3052 38.6767 90.5195 38.2659 91.3234 38.0872C91.6986 38.0158 91.8773 38.0158 92.0916 38.0158C92.2345 38.0158 92.3417 37.8728 92.3417 37.7656C92.3417 37.587 92.1988 37.5155 91.8594 37.5155C90.9483 37.5155 89.1082 37.587 88.8224 37.587C88.6438 37.587 86.768 37.5155 85.3746 37.5155C85.0173 37.5155 84.8922 37.587 84.8922 37.7656C84.8922 37.8728 85.0351 38.0158 85.1423 38.0158C85.4281 38.0158 85.9462 38.0515 86.1963 38.0872C87.2146 38.2301 87.3754 38.7125 87.4468 39.7307C87.5183 40.6776 87.5183 41.5172 87.5183 46.1084V51.3427C87.5183 54.201 87.5183 56.5413 87.3397 57.7561C87.1967 58.6314 87.1253 59.1852 86.5358 59.3282C86.2499 59.3996 85.8748 59.4711 85.5889 59.4711C85.4103 59.4711 85.3388 59.614 85.3388 59.7212C85.3388 59.8998 85.5175 59.9713 85.8212 59.9713C86.768 59.9713 88.608 59.8641 88.8581 59.8641C89.1082 59.8641 90.9483 59.9713 92.4489 59.9713C92.7883 59.9713 92.9313 59.8641 92.9313 59.7212C92.9313 59.614 92.8598 59.4711 92.6812 59.4711C92.3953 59.4711 91.913 59.3996 91.5021 59.3282C90.5553 59.1852 90.4124 58.6314 90.323 57.7561C90.1801 56.5413 90.1801 54.201 90.1801 51.3427V48.4487H90.323C91.7879 50.1994 98.237 56.9879 99.6305 58.0776C100.952 59.0959 101.756 59.7569 103.364 59.882C103.846 59.9356 104.275 59.9534 104.775 59.9534C104.793 59.9534 104.811 59.9534 104.829 59.9534C104.865 59.9534 104.901 59.9534 104.936 59.9534C105.115 59.9534 105.294 59.9534 105.49 59.9534H107.062C107.366 59.9534 107.527 59.9177 107.616 59.8641C107.759 59.8641 107.866 59.8641 107.937 59.8641C108.295 59.8641 109.956 59.9713 110.689 59.9713C110.974 59.9713 111.135 59.8998 111.135 59.7212C111.135 59.5783 111.064 59.4711 110.814 59.4711H110.528C110.01 59.4711 109.474 59.2567 109.474 58.6672C109.474 58.1491 109.652 57.4166 109.92 56.6842L111.671 51.9322C111.743 51.7536 111.85 51.6821 111.993 51.6821H119.067C119.246 51.6821 119.281 51.7179 119.353 51.8608L122.104 58.6672C122.318 59.1495 121.997 59.3996 121.818 59.4711C121.675 59.5425 121.604 59.5425 121.604 59.6854C121.604 59.8641 122.086 59.8641 122.676 59.8998C124.802 59.9713 127.07 59.9713 127.517 59.9713C127.874 59.9713 128.214 59.8998 128.214 59.7212C128.214 59.5425 127.999 59.4711 127.839 59.4711L127.821 59.5425ZM118.585 50.5388H112.368C112.261 50.5388 112.225 50.4673 112.261 50.3244L115.119 42.1961C115.298 41.7494 115.458 41.7494 115.637 42.1961L118.674 50.3244C118.71 50.4673 118.71 50.5388 118.567 50.5388H118.585ZM51.4498 59.5425C51.1282 59.5425 50.6816 59.5068 50.235 59.3639C49.574 59.1495 48.7344 58.7744 47.6268 56.1125C45.751 51.6107 40.8204 39.3735 40.2666 38.1051C39.945 37.4441 39.8557 37.0153 39.5341 37.0153C39.3198 37.0153 39.1768 37.194 38.8017 38.1587L31.5844 56.7199C31.1021 57.9526 30.6019 58.8815 29.6729 59.2567C29.4764 59.2031 29.2799 59.1316 29.0834 59.0602C27.4041 58.3635 26.8146 57.8097 23.8848 55.0764C22.4556 53.7544 15.2026 46.2513 14.2915 45.233C15.024 44.3577 21.0979 38.4266 21.9733 37.587C23.5454 36.0864 24.3135 35.211 25.7427 34.5858C26.4394 34.2642 27.1719 34.1034 27.6899 34.1034C27.9758 34.1034 28.0472 34.032 28.0472 33.8533C28.0472 33.6747 27.9043 33.6032 27.5292 33.6032C26.6538 33.6032 24.3493 33.7104 24.1706 33.7104C23.331 33.7104 22.2591 33.6032 21.5624 33.6032C21.3123 33.6032 21.1515 33.6747 21.1515 33.8533C21.1515 33.9962 21.2944 34.0677 21.4731 34.1391C21.7589 34.2463 21.9197 34.4607 21.9197 34.8716C21.9197 35.4611 21.0086 36.3722 20.0439 37.3905C18.7934 38.7482 12.4693 45.1794 11.8798 45.8404H11.7369V43.7503C11.7369 38.3016 11.7369 37.3369 11.8084 36.2114C11.8798 34.9966 12.1656 34.3893 13.0946 34.2285C13.5055 34.157 13.7199 34.1213 13.97 34.1213C14.1129 34.1213 14.2558 34.0498 14.2558 33.9069C14.2558 33.6925 14.0772 33.6211 13.702 33.6211C12.648 33.6211 10.6293 33.7283 10.3256 33.7283C10.1112 33.7283 8.0568 33.6211 6.48472 33.6211C6.10956 33.6211 5.93092 33.6925 5.93092 33.9069C5.93092 34.0498 6.07383 34.1213 6.21675 34.1213C6.53831 34.1213 7.12784 34.157 7.39581 34.2285C8.55701 34.4786 8.82497 35.0324 8.89643 36.2114C8.96789 37.319 8.96789 38.3016 8.96789 43.7503V49.8957C8.96789 53.2363 8.96789 56.0053 8.78925 57.4702C8.64633 58.4885 8.46768 59.2567 7.77097 59.3818C7.4494 59.4532 7.03852 59.5247 6.71696 59.5247C6.50258 59.5247 6.43112 59.6319 6.43112 59.739C6.43112 59.9534 6.60977 60.0249 6.98493 60.0249C8.03893 60.0249 10.0576 59.9177 10.3435 59.9177C10.6293 59.9177 12.648 60.0249 14.363 60.0249C14.7381 60.0249 14.9168 59.9177 14.9168 59.739C14.9168 59.6319 14.8453 59.5247 14.6309 59.5247C14.3094 59.5247 13.7556 59.4532 13.2732 59.3818C12.2192 59.2388 12.0227 58.4707 11.9155 57.4702C11.7369 56.0053 11.7369 53.2542 11.7369 49.8957V46.4835H11.9155C13.5948 48.538 20.9907 56.5234 22.5628 57.8275C24.0634 59.0066 24.9388 59.7748 26.7788 59.9534C27.3326 60.007 27.815 60.0249 28.4224 60.0249C28.4224 60.0249 28.4402 60.0249 28.4581 60.0249C28.4938 60.0249 28.5296 60.0249 28.5653 60.0249C28.7618 60.0249 28.9583 60.0249 29.1906 60.0249H30.977C31.3164 60.0249 31.5129 59.9891 31.6201 59.9177C32.031 59.9177 33.621 60.0249 34.3177 60.0249C34.6035 60.0249 34.7643 59.9534 34.7643 59.7748C34.7643 59.6319 34.6928 59.5247 34.4427 59.5247H34.1569C33.6388 59.5247 33.1029 59.3103 33.1029 58.7208C33.1029 58.2027 33.2815 57.4702 33.5495 56.7378L35.3002 51.9858C35.3717 51.8072 35.4789 51.7357 35.6218 51.7357H42.6962C42.8748 51.7357 42.9105 51.7715 42.982 51.9144L45.7331 58.7208C45.9475 59.2031 45.6259 59.4532 45.4473 59.5247C45.3044 59.5961 45.2329 59.5961 45.2329 59.739C45.2329 59.9177 45.7153 59.9177 46.3227 59.9534C48.4485 60.0249 50.7173 60.0249 51.1639 60.0249C51.5212 60.0249 51.8607 59.9534 51.8607 59.7748C51.8607 59.5961 51.6463 59.5247 51.4676 59.5247L51.4498 59.5425ZM42.2138 50.5388H35.9969C35.8898 50.5388 35.854 50.4673 35.8898 50.3244L38.7481 42.1961C38.9267 41.7494 39.1054 41.7494 39.2662 42.1961L42.3031 50.3244C42.3389 50.4673 42.3389 50.5388 42.1959 50.5388H42.2138ZM168.212 59.5425C167.891 59.5425 167.444 59.5068 166.998 59.3639C166.337 59.1495 165.497 58.7744 164.389 56.1125C162.514 51.6107 157.583 39.3735 157.029 38.1051C156.708 37.4441 156.618 37.0153 156.297 37.0153C156.082 37.0153 155.939 37.194 155.564 38.1587L148.347 56.7199C147.758 58.2206 147.168 59.2567 145.757 59.4353C145.507 59.4711 145.06 59.5068 144.846 59.5068C144.703 59.5068 144.56 59.614 144.56 59.7569C144.56 59.9356 144.774 60.007 145.149 60.007C146.4 60.007 147.936 59.8998 148.258 59.8998C148.615 59.8998 150.276 60.007 151.009 60.007C151.295 60.007 151.456 59.9356 151.456 59.7569C151.456 59.614 151.384 59.5068 151.134 59.5068H150.848C150.33 59.5068 149.794 59.2924 149.794 58.7029C149.794 58.1848 149.973 57.4524 150.241 56.7199L151.991 51.968C152.063 51.7893 152.17 51.7179 152.313 51.7179H159.387C159.566 51.7179 159.602 51.7536 159.673 51.8965L162.424 58.7029C162.639 59.1852 162.317 59.4353 162.139 59.5068C161.996 59.5783 161.924 59.5783 161.924 59.7212C161.924 59.8998 162.406 59.8998 162.996 59.9356C165.122 60.007 167.391 60.007 167.837 60.007C168.195 60.007 168.534 59.9356 168.534 59.7569C168.534 59.5783 168.32 59.5068 168.159 59.5068L168.212 59.5425ZM158.976 50.5388H152.76C152.652 50.5388 152.617 50.4673 152.652 50.3244L155.511 42.1961C155.689 41.7494 155.85 41.7494 156.029 42.1961L159.066 50.3244C159.102 50.4673 159.102 50.5388 158.959 50.5388H158.976ZM79.9973 59.5425C79.7115 59.5425 79.0505 59.4711 78.6039 59.3996C77.6928 59.2567 77.5856 58.7029 77.4963 57.8275C77.3534 56.6127 77.3534 54.2725 77.3534 51.4142V46.1799C77.3534 41.5708 77.3534 40.7312 77.3891 39.8022C77.4606 38.7482 77.6392 38.3373 78.4788 38.1587C78.8183 38.0872 79.0326 38.0872 79.247 38.0872C79.3542 38.0872 79.4971 37.9443 79.4971 37.8371C79.4971 37.6585 79.3542 37.587 79.0148 37.587C78.068 37.587 76.085 37.6585 75.9421 37.6585C75.7634 37.6585 73.8519 37.587 72.8336 37.587C72.4764 37.587 72.3513 37.6585 72.3513 37.8371C72.3513 37.9443 72.4585 38.0872 72.6014 38.0872C72.8158 38.0872 73.1909 38.1229 73.5482 38.1944C74.2092 38.3373 74.4593 38.7839 74.5308 39.8022C74.6022 40.749 74.6022 41.5887 74.6022 46.1799V51.4142C74.6022 54.2725 74.5665 56.6127 74.4236 57.8275C74.3164 58.7029 74.2092 59.2567 73.6197 59.3996C73.3338 59.4711 72.9587 59.5425 72.6729 59.5425C72.4942 59.5425 72.4228 59.6854 72.4228 59.7926C72.4228 59.9713 72.6014 60.0427 72.9051 60.0427C73.8519 60.0427 75.7634 59.9356 75.9421 59.9356C76.085 59.9356 78.068 60.0427 79.783 60.0427C80.1402 60.0427 80.2653 59.9356 80.2653 59.7926C80.2653 59.6854 80.1938 59.5425 80.0152 59.5425H79.9973ZM193.794 37.587C192.544 37.587 191.526 37.6585 191.186 37.6585C190.847 37.6585 189.364 37.587 187.971 37.587C187.613 37.587 187.381 37.6227 187.381 37.8014C187.381 37.9086 187.417 38.0872 187.631 38.0872C187.881 38.0872 188.578 38.1229 189.132 38.2301C190.079 38.4088 190.239 39.0698 190.275 40.9813L190.597 55.8446C189.65 54.862 186.381 51.3427 183.344 48.1985C178.592 43.3215 174.126 38.5696 173.643 38.0872C173.322 37.7656 172.804 37.1761 172.464 37.1761C172.214 37.1761 172.053 37.4977 172.053 38.6767V55.6659C172.053 58.3456 171.946 59.1495 171.178 59.3639C170.731 59.5068 170.16 59.5425 169.927 59.5425C169.785 59.5425 169.677 59.6497 169.677 59.7926C169.677 60.007 169.856 60.0427 170.16 60.0427C171.553 60.0427 172.839 59.9356 173.125 59.9356C173.411 59.9356 174.626 60.0427 176.377 60.0427C176.716 60.0427 176.93 59.9713 176.93 59.7926C176.93 59.6497 176.823 59.5425 176.68 59.5425C176.394 59.5425 175.698 59.5068 175.144 59.3639C174.304 59.1495 174.036 58.4171 173.965 55.9875L173.608 41.9995C174.554 43.0536 178.002 46.6801 181.557 50.4137C184.809 53.7901 189.239 58.167 189.543 58.4349C191.258 60.007 191.561 60.2393 191.883 60.2393C192.097 60.2393 192.133 60.0606 192.133 58.1134L192.205 40.7312C192.205 38.9447 192.276 38.3552 193.276 38.1408C193.634 38.0693 193.866 38.0693 194.009 38.0693C194.223 38.0693 194.366 37.8907 194.366 37.7835C194.366 37.6049 194.116 37.5691 193.812 37.5691L193.794 37.587ZM137.2 47.1445L136.324 46.555C133.287 44.5006 132.34 43.4108 132.34 41.5351C132.34 39.4449 134.198 38.3195 136.431 38.3195C139.183 38.3195 140.201 39.4271 140.415 39.7843C140.594 40.1059 140.826 40.8919 140.862 41.2492C140.898 41.4993 140.933 41.6244 141.148 41.6244C141.362 41.6244 141.398 41.41 141.398 40.9634C141.398 38.9447 141.541 37.9622 141.541 37.8192C141.541 37.6406 141.469 37.6049 141.219 37.6049C140.969 37.6049 140.737 37.6049 140.129 37.462C139.397 37.2833 138.182 37.1047 136.949 37.1047C132.894 37.1047 130.143 39.1948 130.143 42.6784C130.143 44.7328 131.233 46.555 134.538 49.0203L135.931 50.0743C138.647 52.093 139.808 53.1113 139.808 55.2372C139.808 57.4702 138.236 59.1852 135.199 59.1852C133.144 59.1852 130.84 58.4171 130.357 56.2555C130.25 55.8446 130.25 55.4158 130.25 55.1657C130.25 54.9156 130.143 54.8084 129.964 54.8084C129.786 54.8084 129.714 54.9871 129.714 55.2908C129.679 55.7731 129.536 56.97 129.536 58.4349C129.536 59.2388 129.571 59.346 129.982 59.5425C131.233 60.1321 133.019 60.3464 134.448 60.3464C136.128 60.3464 138.039 60.1321 139.325 59.3103C141.523 57.8811 142.184 55.9875 142.184 54.2546C142.184 51.7 140.898 49.6456 137.164 47.1088L137.2 47.1445ZM68.1353 55.8624C67.9566 55.8624 67.8494 56.0411 67.8137 56.2376C67.7065 56.8271 67.4564 57.4524 67.0813 57.9169C66.3488 58.7922 64.9911 58.8279 63.3833 58.8279C60.9716 58.8279 59.7925 58.6136 59.3102 58.1312C58.7564 57.6132 58.6849 55.8267 58.6849 51.4678V46.162C58.6849 41.5529 58.6849 40.7133 58.7206 39.7843C58.7921 38.7303 58.9707 38.2837 59.864 38.1051C60.2034 38.0693 60.6679 38.0336 60.8823 38.0336C60.9894 38.0336 61.1324 37.9264 61.1324 37.8192C61.1324 37.6406 60.9537 37.5691 60.65 37.5691C59.7032 37.5691 57.3987 37.6406 57.2736 37.6406C57.095 37.6406 55.1835 37.5691 53.79 37.5691C53.4327 37.5691 53.3077 37.6406 53.3077 37.8192C53.3077 37.9264 53.4506 38.0693 53.5578 38.0693C53.8436 38.0693 54.3617 38.1051 54.6118 38.1408C55.6301 38.2837 55.7909 38.7661 55.8623 39.7843C55.9338 40.7312 55.9338 41.5708 55.9338 46.162V51.3963C55.9338 54.2546 55.9338 56.5949 55.7551 57.8097C55.6122 58.685 55.5408 59.2388 54.9512 59.3818C54.6654 59.4532 54.2902 59.5247 54.0044 59.5247C53.8258 59.5247 53.7543 59.6676 53.7543 59.7748C53.7543 59.9534 53.933 60.0249 54.2366 60.0249C54.719 60.0249 55.38 59.9891 56.0231 59.9534C56.6126 59.9177 57.1307 59.9177 57.2736 59.9177C58.1847 59.9177 59.2209 59.9534 60.6322 59.9891C62.0613 60.0606 63.7763 60.0963 65.9737 60.0963C67.6172 60.0963 67.7244 59.9891 67.9209 59.2924C68.171 58.4171 68.3675 56.6485 68.3675 56.3269C68.3675 56.0054 68.2961 55.8803 68.1531 55.8803L68.1353 55.8624ZM166.319 20.2405C167.123 20.2405 168.087 20.1691 168.284 20.1691C168.498 20.1691 169.57 20.2405 170.035 20.2405C170.213 20.2405 170.32 20.1869 170.32 20.0797C170.32 19.9904 170.285 19.919 170.124 19.919H169.945C169.606 19.919 169.284 19.7939 169.284 19.4009C169.284 19.0615 169.392 18.597 169.57 18.1325L170.678 15.1134C170.713 15.0062 170.785 14.9526 170.874 14.9526H175.376C175.483 14.9526 175.501 14.9705 175.555 15.0598L177.305 19.383C177.431 19.6867 177.234 19.8475 177.127 19.9011C177.038 19.9368 177.002 19.9368 177.002 20.0262C177.002 20.1333 177.305 20.1333 177.699 20.1512C179.056 20.2048 180.485 20.2048 180.789 20.2048C181.003 20.2048 181.236 20.1512 181.236 20.044C181.236 19.9368 181.111 19.8832 180.986 19.8832C180.789 19.8832 180.503 19.8654 180.217 19.7761C179.789 19.651 179.271 19.4009 178.556 17.7216C177.359 14.8633 174.233 7.07436 173.876 6.27046C173.679 5.84171 173.608 5.57374 173.411 5.57374C173.286 5.57374 173.197 5.68093 172.947 6.30618L168.355 18.1147C167.98 19.0615 167.605 19.7403 166.712 19.8475C166.551 19.8654 166.265 19.9011 166.14 19.9011C166.051 19.9011 165.962 19.9726 165.962 20.0619C165.962 20.1691 166.087 20.2227 166.337 20.2227L166.319 20.2405ZM172.911 8.91441C173.018 8.62858 173.125 8.62858 173.25 8.91441L175.18 14.0773C175.18 14.0773 175.197 14.2023 175.108 14.2023H171.16C171.16 14.2023 171.071 14.1487 171.089 14.0773L172.911 8.91441ZM165.979 26.3145H192.419V25.2962H165.979V26.3145ZM189.078 6.89571C190.936 6.93144 191.365 7.36019 191.436 7.93186V8.12837C191.472 8.39634 191.526 8.46779 191.615 8.46779C191.704 8.46779 191.794 8.37847 191.794 8.21769C191.794 8.00332 191.865 6.64561 191.865 6.07395C191.865 5.96676 191.865 5.85957 191.776 5.85957C191.686 5.85957 191.508 5.91316 191.222 5.94889C190.918 5.98462 190.472 6.03822 189.829 6.03822H182.468C182.254 6.03822 181.486 6.02035 180.932 5.94889C180.396 5.87744 180.2 5.73452 180.075 5.73452C180.003 5.73452 179.914 5.98462 179.878 6.09181C179.86 6.25259 179.449 7.93186 179.449 8.12837C179.449 8.23556 179.539 8.28915 179.592 8.28915C179.681 8.28915 179.753 8.27128 179.789 8.1105C179.86 7.98545 179.878 7.84254 180.092 7.52097C180.378 7.07436 180.843 6.94931 182.057 6.93144L184.88 6.87785V14.7918C184.88 16.614 184.88 18.0968 184.791 18.8828C184.719 19.4366 184.612 19.8118 184.219 19.9011C184.04 19.9368 183.826 19.9904 183.647 19.9904C183.54 19.9904 183.487 20.0619 183.487 20.1155C183.487 20.2227 183.576 20.2763 183.79 20.2763C184.362 20.2763 185.72 20.2048 185.809 20.2048C185.916 20.2048 187.167 20.2763 188.221 20.2763C188.435 20.2763 188.524 20.2048 188.524 20.1155C188.524 20.044 188.507 19.9547 188.364 19.9547C188.185 19.9547 187.738 19.9011 187.47 19.8654C186.863 19.7761 186.774 19.4188 186.72 18.865C186.631 18.0968 186.631 16.5962 186.631 14.774V6.85999L189.078 6.91358V6.89571ZM192.419 0.303697H165.979V1.32198H192.419V0.321562V0.303697ZM134.038 26.2787C135.431 26.2787 136.717 26.1716 136.985 26.1716C137.253 26.1716 138.486 26.2787 140.219 26.2787C140.558 26.2787 140.773 26.2073 140.773 26.0286C140.773 25.8857 140.665 25.7785 140.522 25.7785C140.237 25.7785 139.558 25.7428 138.986 25.5999C138.146 25.3855 137.878 24.6531 137.807 22.2235L137.468 8.28915C138.397 9.32529 141.844 12.9518 145.399 16.6676C148.633 20.044 153.045 24.3851 153.367 24.6709C155.064 26.2252 155.386 26.4753 155.689 26.4753C155.904 26.4753 155.939 26.2966 155.939 24.3494L156.011 7.03863C156.011 5.27004 156.082 4.68051 157.083 4.46614C157.422 4.39468 157.672 4.39468 157.815 4.39468C158.03 4.39468 158.155 4.21603 158.155 4.10885C158.155 3.9302 157.905 3.89447 157.601 3.89447C156.35 3.89447 155.35 3.96593 154.993 3.96593C154.635 3.96593 153.188 3.89447 151.795 3.89447C151.438 3.89447 151.205 3.9302 151.205 4.10885C151.205 4.21603 151.241 4.39468 151.456 4.39468C151.706 4.39468 152.402 4.43041 152.956 4.53759C153.885 4.71624 154.064 5.37723 154.099 7.28873L154.403 22.0984C153.474 21.1338 150.205 17.6144 147.168 14.4881C142.434 9.62899 137.986 4.89489 137.503 4.41254C137.182 4.09098 136.664 3.50145 136.324 3.50145C136.074 3.50145 135.913 3.80515 135.913 5.00207V21.9377C135.913 24.6173 135.806 25.4212 135.038 25.6178C134.591 25.7607 134.038 25.7964 133.787 25.7964C133.645 25.7964 133.537 25.9036 133.537 26.0465C133.537 26.2609 133.716 26.2966 134.02 26.2966L134.038 26.2787ZM57.8989 26.6539C59.5781 26.6539 61.4897 26.4395 62.7759 25.6178C64.9732 24.1886 65.6342 22.3128 65.6342 20.58C65.6342 18.0432 64.348 15.9888 60.6322 13.452L59.7568 12.8625C56.7377 10.8081 55.7909 9.73618 55.7909 7.8604C55.7909 5.77025 57.6309 4.66265 59.864 4.66265C62.6151 4.66265 63.6155 5.77025 63.8299 6.12754C64.0086 6.4491 64.2408 7.23514 64.2765 7.59243C64.3123 7.84254 64.348 7.96759 64.5624 7.96759C64.7767 7.96759 64.8125 7.75321 64.8125 7.3066C64.8125 5.28791 64.9554 4.32322 64.9554 4.1803C64.9554 4.00166 64.8839 3.96593 64.6517 3.96593C64.4194 3.96593 64.1693 3.96593 63.5798 3.82301C62.8474 3.64437 61.6326 3.48359 60.4178 3.48359C56.3804 3.48359 53.6293 5.57374 53.6293 9.03946C53.6293 11.0939 54.7011 12.8982 58.0061 15.3635L59.3995 16.3997C62.1149 18.4183 63.2582 19.4188 63.2582 21.5446C63.2582 23.7777 61.6862 25.4748 58.6671 25.4748C56.6126 25.4748 54.326 24.7067 53.8258 22.5629C53.7186 22.152 53.7186 21.7233 53.7186 21.491C53.7186 21.2588 53.6114 21.1338 53.4327 21.1338C53.2541 21.1338 53.1826 21.3124 53.1826 21.6161C53.1469 22.0984 53.004 23.2775 53.004 24.7424C53.004 25.5463 53.0397 25.6535 53.4506 25.85C54.7011 26.4395 56.4697 26.6539 57.8989 26.6539ZM109.152 26.2787C110.403 26.2787 111.939 26.1716 112.243 26.1716C112.6 26.1716 114.262 26.2787 114.994 26.2787C115.28 26.2787 115.441 26.2073 115.441 26.0286C115.441 25.8857 115.369 25.7785 115.137 25.7785H114.851C114.333 25.7785 113.815 25.5642 113.815 24.9746C113.815 24.4566 113.994 23.7241 114.262 22.9917L115.994 18.2576C116.066 18.0789 116.173 18.0075 116.316 18.0075H123.372C123.551 18.0075 123.587 18.0432 123.658 18.1861L126.409 24.9746C126.624 25.457 126.302 25.7071 126.124 25.7785C125.981 25.85 125.909 25.85 125.909 25.9929C125.909 26.1716 126.392 26.1716 126.981 26.2073C129.107 26.2787 131.358 26.2787 131.822 26.2787C132.162 26.2787 132.519 26.2073 132.519 26.0286C132.519 25.85 132.305 25.7785 132.144 25.7785C131.84 25.7785 131.376 25.7428 130.929 25.5999C130.268 25.3855 129.429 25.0104 128.321 22.3664C126.445 17.8824 121.532 5.68093 120.979 4.43041C120.657 3.76942 120.568 3.35853 120.246 3.35853C120.032 3.35853 119.889 3.53718 119.514 4.50187L112.314 22.9917C111.725 24.4923 111.135 25.5284 109.742 25.7071C109.492 25.7428 109.045 25.7785 108.831 25.7785C108.688 25.7785 108.545 25.8857 108.545 26.0286C108.545 26.2073 108.759 26.2787 109.134 26.2787H109.152ZM119.478 8.50352C119.657 8.05691 119.817 8.05691 119.996 8.50352L123.015 16.614C123.051 16.7569 123.051 16.8284 122.908 16.8284H116.727C116.62 16.8284 116.584 16.7569 116.62 16.614L119.478 8.50352ZM85.4996 25.7785C85.3567 25.85 85.2852 25.85 85.2852 25.9929C85.2852 26.1716 85.7676 26.1716 86.3571 26.2073C88.483 26.2787 90.7339 26.2787 91.1984 26.2787C91.5378 26.2787 91.8951 26.2073 91.8951 26.0286C91.8951 25.85 91.6807 25.7785 91.52 25.7785C91.2163 25.7785 90.7518 25.7428 90.3052 25.5999C89.6442 25.3855 88.8046 25.0104 87.6969 22.3664C85.8212 17.8824 80.9084 5.68093 80.3546 4.43041C80.0331 3.76942 79.9437 3.35853 79.6222 3.35853C79.4078 3.35853 79.2827 3.53718 78.8897 4.50187L71.6903 22.9917C71.1008 24.4923 70.5113 25.5284 69.1178 25.7071C68.8677 25.7428 68.4211 25.7785 68.2067 25.7785C68.0638 25.7785 67.9209 25.8857 67.9209 26.0286C67.9209 26.2073 68.1353 26.2787 68.5104 26.2787C69.7609 26.2787 71.2973 26.1716 71.601 26.1716C71.9404 26.1716 73.6197 26.2787 74.3521 26.2787C74.638 26.2787 74.7987 26.2073 74.7987 26.0286C74.7987 25.8857 74.7273 25.7785 74.495 25.7785H74.2092C73.6911 25.7785 73.1731 25.5642 73.1731 24.9746C73.1731 24.4566 73.3517 23.7241 73.6197 22.9917L75.3525 18.2576C75.424 18.0789 75.5312 18.0075 75.6741 18.0075H82.7306C82.9092 18.0075 82.945 18.0432 83.0164 18.1861L85.7676 24.9746C85.9819 25.457 85.6604 25.7071 85.4817 25.7785H85.4996ZM82.3018 16.8105H76.1207C76.0135 16.8105 75.9778 16.7391 76.0135 16.5962L78.8719 8.48566C79.0505 8.03905 79.2113 8.03905 79.3899 8.48566L82.409 16.5962C82.4448 16.7391 82.4448 16.8105 82.3018 16.8105ZM6.0917 0.482343C6.3954 0.482343 7.00279 0.518072 7.27076 0.58953C8.41409 0.821769 8.69992 1.39343 8.77138 2.57249C8.84284 3.6801 8.84284 4.66265 8.84284 10.0756V16.2031C8.84284 19.5438 8.84284 22.295 8.66419 23.742C8.52128 24.7424 8.34263 25.5106 7.66378 25.6535C7.34222 25.7249 6.93133 25.7964 6.62764 25.7964C6.41326 25.7964 6.3418 25.9036 6.3418 26.0108C6.3418 26.2252 6.52045 26.2966 6.8956 26.2966C7.93175 26.2966 9.95044 26.1894 10.2363 26.1894C10.5221 26.1894 12.5229 26.2966 14.2379 26.2966C14.6131 26.2966 14.7917 26.1894 14.7917 26.0108C14.7917 25.9036 14.7203 25.7964 14.5059 25.7964C14.1843 25.7964 13.6305 25.7249 13.1482 25.6535C12.1121 25.5106 11.8977 24.7424 11.7905 23.742C11.6118 22.2771 11.6118 19.5259 11.6118 16.2031V12.791H11.7905C13.4519 14.8454 20.8299 22.813 22.402 24.0993C23.9027 25.2783 24.7601 26.0465 26.6181 26.2252C27.154 26.2787 27.6542 26.2966 28.2437 26.2966H28.2795H30.7805C31.1199 26.2966 31.3164 26.2609 31.4236 26.1894C31.8524 26.1894 33.4066 26.2966 34.1212 26.2966C34.407 26.2966 34.5678 26.2252 34.5678 26.0465C34.5678 25.9036 34.4963 25.7964 34.2641 25.7964H33.9783C33.4602 25.7964 32.9421 25.582 32.9421 24.9925C32.9421 24.4744 33.1208 23.742 33.3887 23.0095L35.1216 18.2754C35.193 18.0968 35.3002 18.0253 35.4431 18.0253H42.4996C42.6783 18.0253 42.714 18.0611 42.7855 18.204L45.5366 24.9925C45.751 25.4748 45.4294 25.7249 45.2508 25.7964C45.1079 25.8679 45.0364 25.8679 45.0364 26.0108C45.0364 26.1894 45.5187 26.1894 46.1083 26.2252C48.2342 26.2966 50.4851 26.2966 50.9496 26.2966C51.289 26.2966 51.6463 26.2252 51.6463 26.0465C51.6463 25.8679 51.4319 25.7964 51.2711 25.7964C50.9674 25.7964 50.503 25.7607 50.0563 25.6178C49.3954 25.4034 48.5557 25.0282 47.4481 22.3843C45.5723 17.9003 40.6596 5.69879 40.1058 4.44827C39.7842 3.78728 39.6949 3.3764 39.3733 3.3764C39.159 3.3764 39.0339 3.55504 38.6409 4.51973L31.4415 23.0095C30.9591 24.2422 30.4589 25.1533 29.53 25.5463C29.3335 25.4927 29.137 25.4212 28.9405 25.3498C27.2791 24.6531 26.6717 24.0993 23.7597 21.3839C22.3306 20.0619 15.0954 12.5945 14.2022 11.5762C14.9346 10.7009 20.9907 4.7877 21.8482 3.96593C23.4203 2.46531 24.1706 1.60781 25.5998 0.98255C26.2965 0.678853 27.0289 0.500207 27.547 0.500207C27.8328 0.500207 27.8864 0.428749 27.8864 0.250104C27.8864 0.0714582 27.7435 0 27.3684 0C26.493 0 24.2063 0.107187 24.0277 0.107187C23.1881 0.107187 22.1162 0 21.4195 0C21.1694 0 21.0086 0.0714582 21.0086 0.250104C21.0086 0.39302 21.1515 0.464478 21.3123 0.535936C21.5981 0.643124 21.7589 0.839634 21.7589 1.26838C21.7589 1.85791 20.8478 2.769 19.8831 3.76942C18.6326 5.12712 12.3443 11.5226 11.7548 12.1836H11.6118V10.0935C11.6118 4.66265 11.6118 3.69796 11.6833 2.59036C11.7548 1.37557 12.0227 0.78604 12.9695 0.607395C13.3804 0.535936 13.5948 0.500207 13.8449 0.500207C13.9878 0.500207 14.1307 0.428749 14.1307 0.285833C14.1307 0.0714582 13.9521 0 13.5769 0C12.5408 0 10.5221 0.107187 10.2005 0.107187C9.98617 0.107187 7.93175 0 6.37753 0C6.00238 0 5.82373 0.0714582 5.82373 0.285833C5.82373 0.428749 5.96665 0.500207 6.10956 0.500207L6.0917 0.482343ZM38.6052 8.52139C38.7838 8.07477 38.9446 8.07477 39.1232 8.52139L42.1424 16.6319C42.1781 16.7748 42.1781 16.8463 42.0352 16.8463H35.854C35.7468 16.8463 35.7111 16.7748 35.7468 16.6319L38.6052 8.52139ZM93.5387 4.41254C93.8245 4.41254 94.3426 4.44827 94.5748 4.484C95.5752 4.62692 95.7539 5.10926 95.8253 6.10967C95.8968 7.0565 95.8968 7.87826 95.8968 12.4695V17.6859C95.8968 20.5442 95.8968 22.8666 95.7181 24.0814C95.5752 24.9568 95.5038 25.5106 94.9142 25.6535C94.6284 25.7249 94.2532 25.7964 93.9853 25.7964C93.8066 25.7964 93.7352 25.9393 93.7352 26.0465C93.7352 26.2252 93.9138 26.2966 94.2175 26.2966C94.6999 26.2966 95.3608 26.2609 95.9861 26.2252C96.5756 26.1894 97.0937 26.1894 97.2366 26.1894C98.1477 26.1894 99.1838 26.2252 100.577 26.2609C102.006 26.3323 103.704 26.3681 105.901 26.3681C107.527 26.3681 107.634 26.2609 107.848 25.5642C108.098 24.6888 108.295 22.9202 108.295 22.6165C108.295 22.3128 108.223 22.1699 108.08 22.1699C107.902 22.1699 107.795 22.3485 107.759 22.5451C107.652 23.1346 107.419 23.7598 107.026 24.2065C106.294 25.0818 104.936 25.1176 103.346 25.1176C100.952 25.1176 99.7734 24.9032 99.2732 24.4208C98.7194 23.9028 98.6479 22.1163 98.6479 17.7752V12.4873C98.6479 7.89613 98.6479 7.0565 98.6836 6.12754C98.7551 5.0914 98.9337 4.62692 99.827 4.46614C100.166 4.43041 100.631 4.39468 100.827 4.39468C100.935 4.39468 101.077 4.28749 101.077 4.1803C101.077 4.00166 100.899 3.9302 100.595 3.9302C99.6483 3.9302 97.3617 4.00166 97.2187 4.00166C97.0401 4.00166 95.1286 3.9302 93.7352 3.9302C93.3957 3.9302 93.2528 4.00166 93.2528 4.1803C93.2528 4.28749 93.3957 4.43041 93.5029 4.43041L93.5387 4.41254Z" fill="#BFAA4D"/>
<path d="M80.3192 408.973C79.7476 408.973 77.6395 409.044 77.443 409.044C77.2108 409.044 76.1747 408.973 75.4065 408.973C75.1028 408.973 74.942 409.044 74.942 409.134C74.942 409.277 75.1028 409.402 75.3708 409.473C75.7102 409.58 75.8352 409.813 75.8352 410.206C75.8352 410.581 75.6923 411.045 75.335 411.688C74.7991 412.635 71.1011 418.727 70.5116 419.942L65.1522 411.063C64.9557 410.688 64.7414 410.366 64.7414 409.956C64.7414 409.723 64.8843 409.58 65.1165 409.491C65.3845 409.384 65.581 409.295 65.581 409.187C65.581 409.044 65.5095 408.991 65.1701 408.991C64.0268 408.991 62.8298 409.062 62.6155 409.062C62.4904 409.062 60.2752 408.991 59.7035 408.991C59.4356 408.991 59.3284 409.062 59.3284 409.187C59.3284 409.312 59.4713 409.455 59.6321 409.455C59.8643 409.455 60.436 409.598 60.8647 409.848C61.4007 410.224 62.0974 410.849 62.812 411.921C63.8124 413.421 67.8141 419.763 68.0463 420.21C68.475 421.014 68.6894 421.585 68.6894 423.122V425.569C68.6894 426.034 68.6894 427.248 68.618 428.41C68.5465 429.249 68.35 429.785 67.7426 429.91C67.4746 429.982 67.1352 430.053 66.8672 430.053C66.7065 430.053 66.635 430.196 66.635 430.285C66.635 430.446 66.76 430.518 67.0995 430.518C67.9748 430.518 69.8506 430.41 69.9757 430.41C70.1364 430.41 72.048 430.518 73.6915 430.518C73.9952 430.518 74.156 430.41 74.156 430.285C74.156 430.178 74.0845 430.053 73.9237 430.053C73.6558 430.053 72.9769 429.982 72.5839 429.91C71.7085 429.785 71.512 429.231 71.4406 428.41C71.3334 427.231 71.3334 426.034 71.3334 425.569V423.122C71.3334 422.175 71.2083 421.282 71.7085 420.263C72.3159 419.066 76.4784 412.349 77.443 411.206C78.0862 410.438 78.3541 410.134 78.9258 409.795C79.3903 409.527 79.9619 409.42 80.3014 409.42C80.5336 409.42 80.6765 409.259 80.6765 409.116C80.6765 409.009 80.5157 408.955 80.3014 408.955L80.3192 408.973ZM62.6155 430.053C62.3118 430.053 61.883 430.017 61.4364 429.892C60.7933 429.696 59.9894 429.321 58.9175 426.766C57.1132 422.443 52.3791 410.67 51.8431 409.473C51.5395 408.83 51.4323 408.437 51.1464 408.437C50.9499 408.437 50.807 408.598 50.4497 409.545L43.5183 427.374C42.9466 428.821 42.3749 429.821 41.0351 429.982C40.8029 430.017 40.3562 430.053 40.1597 430.053C40.0704 430.053 39.999 430.107 39.9632 430.16C39.9275 430.089 39.856 430.053 39.731 430.053C39.3916 430.053 38.5162 430.053 37.5515 429.749C36.1045 429.285 35.8722 427.409 35.7472 426.194L33.4963 405.614C33.4248 404.971 33.3355 404.703 33.0854 404.703C32.8353 404.703 32.7102 404.936 32.5852 405.239L22.7239 426.302L12.4697 405.204C12.3089 404.828 12.166 404.703 11.9695 404.703C11.773 404.703 11.6301 404.936 11.5943 405.311L9.18261 427.177C9.05756 428.445 8.95037 429.767 7.84277 429.964C7.34256 430.071 7.11032 430.071 6.84236 430.071C6.68157 430.071 6.50293 430.143 6.50293 430.232C6.50293 430.464 6.73517 430.536 7.0746 430.536C7.98569 430.536 9.5935 430.428 9.89719 430.428C10.1652 430.428 11.773 430.536 13.0056 430.536C13.4165 430.536 13.613 430.464 13.613 430.232C13.613 430.125 13.488 430.071 13.345 430.071C13.1485 430.071 12.6483 430.035 12.0767 429.91C11.5765 429.803 11.2013 429.374 11.2013 428.874C11.2013 428.302 11.2013 427.695 11.237 427.159L12.5769 411.599H12.7198C13.0949 412.51 16.8465 420.549 17.1502 421.157C17.311 421.496 20.205 427.284 21.0804 428.928C21.7235 430.143 21.8843 430.464 22.1165 430.464C22.4202 430.464 22.5096 430.16 23.2241 428.678L31.4418 411.242H31.549L33.1568 428.535C33.2283 429.142 33.1926 429.714 33.0139 429.749C32.8531 429.785 32.7817 429.857 32.7817 429.982C32.7817 430.143 32.9425 430.25 33.7285 430.321C34.9611 430.428 38.5877 430.518 39.3201 430.518C39.6059 430.518 39.8382 430.464 39.9632 430.357C40.0168 430.464 40.1955 430.518 40.4992 430.518C41.714 430.518 43.1788 430.41 43.4825 430.41C43.822 430.41 45.4298 430.518 46.1265 430.518C46.3945 430.518 46.5552 430.446 46.5552 430.285C46.5552 430.143 46.4838 430.053 46.2515 430.053H45.9836C45.4834 430.053 44.9832 429.857 44.9832 429.285C44.9832 428.785 45.1439 428.07 45.4119 427.374L47.0912 422.818C47.1626 422.657 47.252 422.586 47.3949 422.586H54.2013C54.362 422.586 54.3978 422.622 54.4692 422.747L57.1132 429.285C57.3097 429.749 57.006 429.982 56.8452 430.053C56.7023 430.125 56.6487 430.125 56.6487 430.25C56.6487 430.41 57.1132 430.41 57.6849 430.446C59.7214 430.518 61.9009 430.518 62.3475 430.518C62.6869 430.518 63.0264 430.446 63.0264 430.285C63.0264 430.125 62.8298 430.053 62.6512 430.053H62.6155ZM53.7368 421.407H47.77C47.6628 421.407 47.645 421.335 47.6628 421.21L50.414 413.403C50.5748 412.975 50.7534 412.975 50.9142 413.403L53.8261 421.21C53.8618 421.335 53.8618 421.407 53.7189 421.407H53.7368ZM92.6994 408.562C84.5531 408.562 80.9981 415.101 80.9981 419.692C80.9981 424.819 84.4459 430.893 92.5386 430.893C99.6487 430.893 104.365 425.623 104.365 419.263C104.365 412.903 99.3271 408.562 92.6994 408.562ZM93.3782 429.714C88.0546 429.714 84.0529 425.551 84.0529 418.924C84.0529 412.725 87.608 409.634 92.5386 409.634C97.2012 409.634 101.364 413.225 101.364 420.067C101.364 428.32 96.04 429.732 93.3782 429.732V429.714ZM184.416 404.703C179.057 404.703 176.002 410.706 176.002 418.62C176.002 424.622 178.646 430.982 183.88 430.982C189.114 430.982 192.33 424.783 192.33 417.066C192.33 412.671 190.561 404.703 184.416 404.703ZM184.559 429.749C180.432 429.749 178.717 423.104 178.717 417.244C178.717 410.438 180.629 405.936 183.755 405.936C187.542 405.936 189.615 412.135 189.615 418.513C189.615 424.89 187.578 429.749 184.559 429.749ZM146.132 404.703C140.773 404.703 137.718 410.706 137.718 418.62C137.718 424.622 140.362 430.982 145.596 430.982C150.831 430.982 154.046 424.783 154.046 417.066C154.046 412.671 152.26 404.703 146.132 404.703ZM146.257 429.749C142.131 429.749 140.416 423.104 140.416 417.244C140.416 410.438 142.327 405.936 145.453 405.936C149.241 405.936 151.313 412.135 151.313 418.513C151.313 424.89 149.276 429.749 146.257 429.749ZM170.571 430.017C170.267 430.017 168.856 429.91 168.356 429.821C167.284 429.589 167.141 429.089 167.016 428.052C166.855 426.57 166.819 423.693 166.855 420.335L166.891 414.136C166.927 409.009 167.052 405.686 167.052 405.418C167.052 405.079 166.944 404.721 166.676 404.721C166.444 404.721 166.176 404.918 165.873 405.132L159.406 409.455C159.263 409.563 159.173 409.688 159.173 409.795C159.173 409.938 159.298 410.098 159.406 410.098C159.548 410.098 159.638 410.063 159.816 409.956C160.656 409.545 162.996 408.348 163.639 408.348C164.175 408.348 164.247 408.723 164.247 409.384V420.353C164.247 423.711 164.247 426.587 164.14 428.07C164.068 429.106 163.836 429.607 162.728 429.821C162.085 429.946 160.442 430.053 160.049 430.053C159.906 430.053 159.781 430.196 159.781 430.321C159.781 430.482 159.977 430.553 160.352 430.553C162.496 430.553 165.319 430.446 165.48 430.446C165.64 430.446 167.784 430.553 170.303 430.553C170.714 430.553 170.875 430.482 170.875 430.321C170.875 430.178 170.714 430.053 170.571 430.053V430.017ZM134.485 424.515C134.288 424.515 134.181 424.658 134.074 425.015C133.663 426.802 132.591 427.999 130.143 428.231C128.929 428.374 124.981 428.392 124.409 428.392H121.961C121.801 428.392 121.729 428.285 121.89 428.16C126.052 424.605 133.556 418.406 133.556 411.456C133.556 407.901 131.037 404.686 125.981 404.686C123.266 404.686 121.318 405.293 120.086 405.865C119.782 406.061 119.746 406.168 119.746 406.365C119.746 407.401 119.907 410.188 119.943 410.492C119.979 410.795 120.086 410.92 120.211 410.92C120.372 410.92 120.514 410.724 120.514 410.42C120.514 409.116 120.89 407.937 121.694 407.169C122.658 406.258 123.676 405.9 125.284 405.9C127.535 405.9 130.608 407.312 130.608 412.099C130.608 418.531 125.606 423.157 118.907 429.124C118.639 429.356 118.299 429.66 118.299 429.928C118.299 430.196 118.532 430.393 118.764 430.393H131.465C132.877 430.393 133.377 430.285 133.645 429.392C133.984 428.249 134.645 425.641 134.645 424.998C134.645 424.801 134.61 424.497 134.449 424.497L134.485 424.515ZM25.7252 369.796C26.0825 369.796 26.7256 369.832 27.0293 369.885C28.2977 370.064 28.512 370.671 28.6014 371.94C28.6907 373.119 28.6907 374.155 28.6907 379.907V386.446C28.6907 390.019 28.6907 392.931 28.4763 394.467C28.2977 395.557 28.2084 396.253 27.4759 396.432C27.1365 396.521 26.6541 396.611 26.2968 396.611C26.0825 396.611 25.9931 396.789 25.9931 396.914C25.9931 397.129 26.2075 397.218 26.6005 397.218C27.7796 397.218 30.0841 397.093 30.3878 397.093C30.6915 397.093 32.9961 397.218 34.8718 397.218C35.3006 397.218 35.4792 397.093 35.4792 396.914C35.4792 396.789 35.3899 396.611 35.1755 396.611C34.8361 396.611 34.2108 396.521 33.6928 396.432C32.5137 396.253 32.3351 395.557 32.21 394.467C32.0314 392.949 32.0314 390.019 32.0314 386.446V382.837H32.21C34.0322 385.017 42.107 393.502 43.8398 394.86C45.5012 396.128 46.5016 396.95 48.5025 397.129C49.1099 397.182 49.6458 397.2 50.2711 397.218C50.2889 397.218 50.3068 397.218 50.3425 397.218C50.3783 397.218 50.4318 397.218 50.4676 397.218C50.682 397.218 50.9142 397.218 51.1643 397.218H53.1294C53.5046 397.218 53.7189 397.165 53.8261 397.093C54.0048 397.093 54.1477 397.093 54.2191 397.093C54.6479 397.093 56.738 397.218 57.667 397.218C58.0243 397.218 58.2387 397.129 58.2387 396.914C58.2387 396.736 58.1493 396.611 57.8456 396.611H57.4883C56.8274 396.611 56.1842 396.343 56.1842 395.61C56.1842 394.949 56.3986 394.038 56.7559 393.127L58.9354 387.196C59.0247 386.982 59.1497 386.892 59.3284 386.892H68.1713C68.3857 386.892 68.4393 386.928 68.5286 387.107L71.9765 395.61C72.2445 396.218 71.8514 396.521 71.6371 396.611C71.4584 396.7 71.3691 396.7 71.3691 396.879C71.3691 397.093 71.9765 397.093 72.7268 397.147C75.3886 397.236 78.2112 397.236 78.7829 397.236C79.2116 397.236 79.6582 397.147 79.6582 396.932C79.6582 396.718 79.3903 396.629 79.1759 396.629C78.7829 396.629 78.2112 396.593 77.6574 396.414C76.8356 396.146 75.7816 395.664 74.3882 392.359C72.0301 386.732 65.8847 371.44 65.188 369.868C64.7949 369.046 64.6699 368.51 64.2769 368.51C64.0089 368.51 63.8481 368.724 63.3658 369.957L54.3442 393.145C53.7189 394.717 53.0937 395.878 51.8789 396.343C51.6466 396.271 51.3965 396.2 51.1643 396.111C49.3421 395.36 48.8955 394.896 45.6799 392.02C44.1078 390.59 36.1402 382.605 35.1398 381.515C35.9616 380.604 42.5 374.334 43.4647 373.458C45.1618 371.851 45.9121 371.011 47.4663 370.314C48.1988 370.01 49.0384 369.796 49.5922 369.796C49.8959 369.796 49.9852 369.671 49.9852 369.492C49.9852 369.314 49.8066 369.224 49.4136 369.224C48.4489 369.224 45.93 369.314 45.7156 369.314C44.8045 369.314 43.6255 369.224 42.8394 369.224C42.5714 369.224 42.4107 369.314 42.4107 369.492C42.4107 369.617 42.5357 369.796 42.768 369.832C43.0717 369.868 43.2503 370.1 43.2503 370.582C43.2503 371.19 42.2499 372.154 41.1602 373.244C39.7131 374.727 32.8889 381.479 32.2636 382.176H32.085V379.961C32.085 374.209 32.085 373.172 32.1743 371.993C32.2636 370.689 32.5137 370.171 33.532 369.939C34.0143 369.85 34.2287 369.85 34.4967 369.85C34.6753 369.85 34.8004 369.671 34.8004 369.546C34.8004 369.332 34.6217 369.242 34.193 369.242C33.0675 369.242 30.7451 369.332 30.4057 369.332C30.1913 369.332 27.8332 369.242 26.1003 369.242C25.6716 369.242 25.4929 369.332 25.4929 369.546C25.4929 369.671 25.6716 369.85 25.7966 369.85L25.7252 369.796ZM63.2765 374.941C63.4908 374.369 63.7052 374.369 63.9374 374.941L67.7247 385.088C67.7605 385.267 67.7605 385.356 67.5997 385.356H59.8465C59.7214 385.356 59.6678 385.267 59.7214 385.088L63.2943 374.941H63.2765ZM123.623 372.19C123.837 372.19 123.98 371.976 124.016 371.583C124.141 370.368 124.748 368.974 125.677 368.224C126.731 367.349 128.464 367.134 129.733 367.134H140.451C133.877 378.55 129.161 390.18 127.464 395.896C127.339 396.289 127.196 396.95 127.196 397.379C127.196 397.683 127.321 397.808 127.589 397.808C128.464 397.808 131.858 396.021 131.858 395.146C131.858 394.664 131.769 394.36 131.858 393.627C132.519 387.964 139.701 370.886 143.238 365.651C143.453 365.312 143.506 364.991 143.506 364.83C143.506 364.562 143.292 364.401 142.72 364.401H128.607C125.785 364.401 124.73 363.972 124.463 363.972C124.195 363.972 124.034 364.151 124.034 364.58C124.034 365.008 123.373 370.118 123.373 371.511C123.373 371.993 123.409 372.208 123.641 372.208L123.623 372.19ZM117.442 389.393C117.174 389.393 117.049 389.572 116.924 390.054C116.406 392.359 115.012 393.931 111.832 394.235C110.26 394.413 105.115 394.449 104.383 394.449H101.203C100.989 394.449 100.899 394.324 101.114 394.145C106.509 389.519 116.281 381.462 116.281 372.44C116.281 367.831 113.011 363.633 106.437 363.633C102.9 363.633 100.381 364.419 98.7733 365.151C98.3803 365.419 98.3446 365.544 98.3446 365.812C98.3446 367.17 98.5589 370.779 98.6125 371.172C98.6483 371.565 98.7912 371.743 98.952 371.743C99.1663 371.743 99.345 371.475 99.345 371.082C99.345 369.385 99.8273 367.849 100.863 366.848C102.132 365.669 103.436 365.187 105.526 365.187C108.438 365.187 112.458 367.009 112.458 373.244C112.458 381.605 105.973 387.625 97.2548 395.378C96.8975 395.682 96.4688 396.075 96.4688 396.432C96.4688 396.789 96.7725 397.04 97.0762 397.04H113.583C115.405 397.04 116.066 396.914 116.406 395.735C116.834 394.253 117.71 390.858 117.71 390.019C117.71 389.751 117.674 389.358 117.442 389.358V389.393ZM7.59267 364.865C7.89636 364.865 8.46803 364.901 8.95037 365.044C9.91506 365.258 10.3438 366.009 10.4331 367.492C10.5225 368.885 10.5225 370.1 10.5225 376.906V384.57C10.5225 388.75 10.5225 392.198 10.3081 394.02C10.1294 395.289 9.91506 396.236 9.03969 396.414C8.64667 396.504 8.1286 396.593 7.73558 396.593C7.46761 396.593 7.39616 396.718 7.39616 396.861C7.39616 397.129 7.61053 397.218 8.09287 397.218C9.39699 397.218 12.1481 397.093 12.3625 397.093C12.5769 397.093 15.328 397.218 17.7219 397.218C18.2042 397.218 18.4186 397.093 18.4186 396.861C18.4186 396.736 18.3293 396.593 18.0613 396.593C17.6683 396.593 16.7036 396.504 16.0962 396.414C14.7921 396.236 14.5241 395.289 14.3991 394.02C14.1847 392.198 14.1847 388.75 14.1847 384.57V376.906C14.1847 370.118 14.1847 368.885 14.274 367.492C14.3633 365.973 14.7028 365.223 15.8818 365.008C16.3999 364.919 16.6679 364.883 16.9716 364.883C17.1502 364.883 17.3288 364.794 17.3288 364.615C17.3288 364.347 17.1145 364.258 16.6321 364.258C15.328 364.258 12.5769 364.383 12.3625 364.383C12.1481 364.383 9.39699 364.258 7.96782 364.258C7.48548 364.258 7.27111 364.347 7.27111 364.615C7.27111 364.794 7.44975 364.883 7.6284 364.883L7.59267 364.865ZM79.7118 387C79.9262 387 80.6765 386.571 81.4983 386.339C82.981 385.946 90.6985 384.909 91.8597 384.731C92.5564 384.606 93.3782 384.516 93.3782 383.998C93.3782 383.641 92.8065 383.57 92.0741 383.57H81.0874C80.3907 383.57 80.212 383.605 80.1227 383.927L79.4617 386.374C79.3724 386.767 79.426 387.035 79.6761 387.035L79.7118 387ZM153.439 389.626C154.546 389.626 155.583 389.536 155.797 389.536C156.011 389.536 156.994 389.626 158.387 389.626C158.673 389.626 158.834 389.572 158.834 389.429C158.834 389.322 158.745 389.233 158.637 389.233C158.423 389.233 157.851 389.215 157.423 389.09C156.762 388.929 156.529 388.339 156.476 386.392L156.19 375.245C156.94 376.084 159.691 378.961 162.532 381.944C165.122 384.642 168.642 388.107 168.892 388.339C170.249 389.59 170.499 389.787 170.75 389.787C170.91 389.787 170.946 389.644 170.946 388.089L171 374.244C171 372.833 171.053 372.351 171.857 372.19C172.143 372.136 172.322 372.136 172.447 372.136C172.607 372.136 172.733 371.993 172.733 371.922C172.733 371.779 172.536 371.761 172.286 371.761C171.286 371.761 170.482 371.815 170.196 371.815C169.91 371.815 168.749 371.761 167.641 371.761C167.355 371.761 167.177 371.797 167.177 371.922C167.177 372.011 167.212 372.136 167.373 372.136C167.57 372.136 168.123 372.154 168.57 372.244C169.32 372.386 169.463 372.905 169.481 374.441L169.731 386.285C168.981 385.499 166.373 382.694 163.961 380.193C160.174 376.299 156.619 372.529 156.244 372.136C155.993 371.886 155.583 371.404 155.297 371.404C155.1 371.404 154.957 371.654 154.957 372.601V386.142C154.957 388.286 154.868 388.911 154.261 389.09C153.903 389.197 153.457 389.233 153.26 389.233C153.153 389.233 153.064 389.322 153.064 389.429C153.064 389.59 153.207 389.626 153.457 389.626H153.439ZM191.919 364.723H154.868V366.009H191.919V364.723ZM191.919 396.021H154.868V397.307H191.919V396.021ZM193.277 380.765C192.526 380.765 190.99 380.818 190.883 380.818C190.74 380.818 189.096 380.765 187.989 380.765C187.703 380.765 187.596 380.801 187.596 380.961C187.596 381.051 187.703 381.158 187.792 381.158C188.007 381.158 188.435 381.194 188.632 381.212C189.632 381.408 189.686 381.676 189.686 383.605V387.696C189.686 388.143 189.489 388.25 189.186 388.411C188.543 388.768 187.399 388.858 186.542 388.858C184.291 388.858 182.236 388.197 180.289 386.392C179.432 385.588 177.699 383.194 177.699 379.854C177.699 377.103 178.699 374.995 180.111 373.905C181.968 372.494 183.755 372.369 185.22 372.369C188.382 372.369 190.24 373.315 190.865 374.209C191.258 374.762 191.401 375.459 191.419 375.763C191.419 375.977 191.455 376.12 191.58 376.12C191.74 376.12 191.865 376.013 191.865 375.62C191.865 373.262 192.008 372.619 192.008 372.279C192.008 372.172 191.955 372.065 191.705 372.065C191.097 372.065 190.24 371.922 189.74 371.815C189.275 371.708 187.542 371.422 185.988 371.422C184.13 371.422 181.683 371.583 179.485 372.922C177.324 374.226 175.394 376.888 175.394 380.676C175.394 383.623 176.806 386.142 178.306 387.393C181.022 389.697 184.505 389.929 186.363 389.929C187.774 389.929 190.008 389.679 191.562 388.875C191.865 388.715 191.901 388.679 191.901 387.607V384.963C191.901 383.963 191.901 383.266 191.937 382.516C191.991 381.676 192.187 381.319 192.848 381.212C193.134 381.158 193.295 381.158 193.455 381.158C193.545 381.158 193.652 381.051 193.652 380.961C193.652 380.801 193.545 380.765 193.259 380.765H193.277Z" fill="#BFAA4D"/>
</g>
<defs>
<clipPath id="clip0_1225_5770">
<rect width="200.154" height="431" fill="white"/>
</clipPath>
</defs>
</svg>
