<svg width="256" height="256" viewBox="0 0 256 256" fill="none" xmlns="http://www.w3.org/2000/svg">
<path d="M192.667 128.46C192.667 164.174 163.715 193.126 128 193.126C92.2857 193.126 63.3334 164.174 63.3334 128.46C63.3334 92.7453 92.2857 63.7931 128 63.7931C163.715 63.7931 192.667 92.7453 192.667 128.46Z" stroke="#71717A" stroke-width="4" stroke-miterlimit="10"/>
<path d="M246 128C246 193.17 193.17 246 128 246C62.8304 246 10 193.17 10 128C10 62.8304 62.8304 10 128 10C193.17 10 246 62.8304 246 128Z" stroke="#71717A" stroke-width="4" stroke-miterlimit="10"/>
<path d="M192.667 126.161C192.667 176.603 151.775 217.494 101.333 217.494C50.8913 217.494 10 176.603 10 126.161C10 75.7188 50.8913 34.8275 101.333 34.8275C151.775 34.8275 192.667 75.7188 192.667 126.161Z" stroke="#71717A" stroke-width="4" stroke-miterlimit="10"/>
</svg>
